<svg xmlns="http://www.w3.org/2000/svg" width="67.733" height="67.733" viewBox="0 0 67.733 67.733">
  <defs>
    <style>
      .cls-1 {
        fill: #fff;
      }
    </style>
  </defs>
  <g id="calamares_install_image" transform="translate(0 -229.267)">
    <rect id="background" width="67.733" height="67.733" transform="translate(0 229.267)"/>
    <path id="Path_213" data-name="Path 213" class="cls-1" d="M1.218-2.244a.942.942,0,0,1,.473.122.9.9,0,0,1,.339.336.947.947,0,0,1,.125.485.947.947,0,0,1-.125.484.885.885,0,0,1-.339.335.951.951,0,0,1-.473.12.96.96,0,0,1-.474-.12A.893.893,0,0,1,.4-.817.939.939,0,0,1,.276-1.3.939.939,0,0,1,.4-1.786a.9.9,0,0,1,.342-.336A.95.95,0,0,1,1.218-2.244Zm0,.156a.766.766,0,0,0-.388.1.708.708,0,0,0-.271.279.832.832,0,0,0-.1.408.815.815,0,0,0,.1.4.713.713,0,0,0,.271.276.766.766,0,0,0,.388.1.76.76,0,0,0,.386-.1A.713.713,0,0,0,1.875-.9a.815.815,0,0,0,.1-.4.832.832,0,0,0-.1-.408A.708.708,0,0,0,1.6-1.989.76.76,0,0,0,1.218-2.088Zm.006.213a.543.543,0,0,1,.189.03.657.657,0,0,1,.162.09l-.1.141a.4.4,0,0,0-.234-.081.239.239,0,0,0-.2.1.475.475,0,0,0-.075.294.464.464,0,0,0,.073.285.238.238,0,0,0,.2.1.37.37,0,0,0,.133-.022.451.451,0,0,0,.118-.071l.1.144a.523.523,0,0,1-.357.138A.457.457,0,0,1,.87-.885a.606.606,0,0,1-.135-.42A.671.671,0,0,1,.8-1.614a.467.467,0,0,1,.177-.2A.472.472,0,0,1,1.224-1.875ZM4.248-2.1a.9.9,0,0,1,.313.048.937.937,0,0,1,.26.156l-.156.183a.625.625,0,0,0-.4-.153.5.5,0,0,0-.415.2,1.024,1.024,0,0,0-.158.636,1.029,1.029,0,0,0,.156.628.5.5,0,0,0,.414.2.554.554,0,0,0,.231-.045A1.213,1.213,0,0,0,4.7-.375l.141.18A.769.769,0,0,1,4.6-.03a.849.849,0,0,1-.345.066.82.82,0,0,1-.448-.124A.819.819,0,0,1,3.5-.455a1.4,1.4,0,0,1-.109-.58A1.351,1.351,0,0,1,3.5-1.615a.841.841,0,0,1,.309-.365A.8.8,0,0,1,4.248-2.1Zm1.476.486a.636.636,0,0,1,.517.222.915.915,0,0,1,.184.6,1.051,1.051,0,0,1-.084.433A.659.659,0,0,1,6.1-.068a.677.677,0,0,1-.378.1A.64.64,0,0,1,5.2-.186a.91.91,0,0,1-.186-.6A1.051,1.051,0,0,1,5.1-1.222a.659.659,0,0,1,.243-.291A.683.683,0,0,1,5.724-1.617Zm0,.222q-.411,0-.411.606t.408.6q.408,0,.408-.606T5.724-1.395Zm1.884-.222a.492.492,0,0,1,.444.216,1.111,1.111,0,0,1,.141.609,1.014,1.014,0,0,1-.162.6.53.53,0,0,1-.459.228.51.51,0,0,1-.414-.18v.75L6.882.639v-2.22h.237l.021.213a.6.6,0,0,1,.21-.184A.548.548,0,0,1,7.608-1.617Zm-.1,1.428q.39,0,.39-.6T7.539-1.4a.357.357,0,0,0-.213.069.678.678,0,0,0-.168.177v.771a.416.416,0,0,0,.15.143A.4.4,0,0,0,7.506-.189Zm1.779.2a1.067,1.067,0,0,1-.26.436A.784.784,0,0,1,8.55.639L8.52.423A.813.813,0,0,0,8.769.345a.429.429,0,0,0,.148-.13A.914.914,0,0,0,9.021,0H8.928L8.4-1.581h.294L9.114-.2l.414-1.38h.285Zm1.53-1.626a.642.642,0,0,1,.156.018l-.051.27a.569.569,0,0,0-.138-.018.293.293,0,0,0-.237.108A.8.8,0,0,0,10.4-.9V0h-.276V-1.581h.237l.027.321a.6.6,0,0,1,.171-.267A.382.382,0,0,1,10.815-1.617Zm.747.036V0h-.276V-1.581Zm-.141-.759a.191.191,0,0,1,.141.054.183.183,0,0,1,.054.135.178.178,0,0,1-.054.134.194.194,0,0,1-.141.053.19.19,0,0,1-.138-.053.178.178,0,0,1-.054-.134.183.183,0,0,1,.054-.135A.187.187,0,0,1,11.421-2.34Zm1.986.831a.848.848,0,0,1-.2.039q-.108.009-.264.009a.417.417,0,0,1,.279.4.5.5,0,0,1-.162.387.624.624,0,0,1-.441.15.651.651,0,0,1-.2-.03.17.17,0,0,0-.057.065.177.177,0,0,0-.021.082q0,.129.207.129H12.8a.664.664,0,0,1,.282.057.456.456,0,0,1,.191.156.39.39,0,0,1,.067.225.4.4,0,0,1-.189.356A1.007,1.007,0,0,1,12.6.639a1.248,1.248,0,0,1-.4-.053.383.383,0,0,1-.212-.157.519.519,0,0,1-.063-.27h.249a.276.276,0,0,0,.036.152.225.225,0,0,0,.129.084A.946.946,0,0,0,12.6.423a.753.753,0,0,0,.355-.062.2.2,0,0,0,.107-.184.19.19,0,0,0-.084-.168.413.413,0,0,0-.234-.057h-.249a.468.468,0,0,1-.3-.086.267.267,0,0,1-.1-.214.279.279,0,0,1,.045-.15.44.44,0,0,1,.129-.129.5.5,0,0,1-.2-.178.492.492,0,0,1-.064-.259.523.523,0,0,1,.079-.285.542.542,0,0,1,.219-.2.678.678,0,0,1,.311-.07,2.192,2.192,0,0,0,.312-.014,1.081,1.081,0,0,0,.208-.045q.083-.029.2-.083Zm-.8.09a.3.3,0,0,0-.242.1.375.375,0,0,0-.085.257.375.375,0,0,0,.087.259.313.313,0,0,0,.246.1A.317.317,0,0,0,12.857-.8a.382.382,0,0,0,.085-.266A.305.305,0,0,0,12.6-1.419Zm1.833-.2a.441.441,0,0,1,.337.129.5.5,0,0,1,.122.354V0h-.276V-1.1a.345.345,0,0,0-.064-.237.244.244,0,0,0-.187-.069.355.355,0,0,0-.219.072.763.763,0,0,0-.18.2V0h-.276V-2.214l.276-.03v.882A.559.559,0,0,1,14.436-1.617ZM16.248-.072a.607.607,0,0,1-.354.108.417.417,0,0,1-.314-.115.46.46,0,0,1-.112-.334v-.954h-.276v-.213h.276v-.357l.276-.033v.39h.375l-.03.213h-.345v.942a.291.291,0,0,0,.044.178.174.174,0,0,0,.145.056.453.453,0,0,0,.21-.063Zm1.479-1.965a.669.669,0,0,1,.316.072.529.529,0,0,1,.212.2.533.533,0,0,1,.075.281.787.787,0,0,1-.083.351,1.712,1.712,0,0,1-.253.363q-.171.195-.519.543h.9L18.345,0H17.16V-.219q.4-.417.57-.61a1.714,1.714,0,0,0,.24-.338.681.681,0,0,0,.072-.309.327.327,0,0,0-.09-.244.327.327,0,0,0-.24-.089.442.442,0,0,0-.216.051.79.79,0,0,0-.2.168l-.18-.144a.828.828,0,0,1,.273-.228A.741.741,0,0,1,17.727-2.037Zm1.638,0a.558.558,0,0,1,.5.266,1.437,1.437,0,0,1,.17.77,1.446,1.446,0,0,1-.17.771.557.557,0,0,1-.5.267.557.557,0,0,1-.5-.267A1.446,1.446,0,0,1,18.693-1a1.437,1.437,0,0,1,.169-.77A.558.558,0,0,1,19.365-2.037Zm0,.219a.307.307,0,0,0-.289.192A1.508,1.508,0,0,0,18.981-1a1.52,1.52,0,0,0,.095.625.307.307,0,0,0,.289.193.307.307,0,0,0,.288-.193,1.5,1.5,0,0,0,.1-.625,1.489,1.489,0,0,0-.1-.622A.307.307,0,0,0,19.365-1.818Zm1.485-.219a.669.669,0,0,1,.316.072.529.529,0,0,1,.212.2.533.533,0,0,1,.075.281.787.787,0,0,1-.083.351,1.712,1.712,0,0,1-.253.363q-.171.195-.519.543h.9L21.468,0H20.283V-.219q.4-.417.57-.61a1.714,1.714,0,0,0,.24-.338.681.681,0,0,0,.072-.309.327.327,0,0,0-.09-.244.327.327,0,0,0-.24-.089.442.442,0,0,0-.216.051.79.79,0,0,0-.2.168l-.18-.144a.828.828,0,0,1,.273-.228A.741.741,0,0,1,20.85-2.037Zm1.485,0a.669.669,0,0,1,.316.072.529.529,0,0,1,.212.2.533.533,0,0,1,.075.281.787.787,0,0,1-.083.351,1.712,1.712,0,0,1-.253.363q-.171.195-.519.543h.9L22.953,0H21.768V-.219q.4-.417.57-.61a1.714,1.714,0,0,0,.24-.338.681.681,0,0,0,.072-.309.327.327,0,0,0-.09-.244.327.327,0,0,0-.24-.089.442.442,0,0,0-.216.051.79.79,0,0,0-.2.168l-.18-.144A.828.828,0,0,1,22-1.962.741.741,0,0,1,22.335-2.037Zm2.181-.03V0h-.285V-2.067Zm1.125,0-.783.945L25.7,0h-.351l-.816-1.1.786-.963Zm1.386,1.7a.248.248,0,0,0,.033.143.2.2,0,0,0,.1.07L27.1.036a.422.422,0,0,1-.2-.069A.316.316,0,0,1,26.787-.2a.53.53,0,0,1-.471.237A.505.505,0,0,1,25.947-.1a.461.461,0,0,1-.135-.345.453.453,0,0,1,.181-.387.849.849,0,0,1,.514-.135h.243V-1.08a.308.308,0,0,0-.081-.24.367.367,0,0,0-.249-.072A1.393,1.393,0,0,0,26-1.308l-.069-.2a1.591,1.591,0,0,1,.546-.108.571.571,0,0,1,.417.136.522.522,0,0,1,.138.388Zm-.648.2a.412.412,0,0,0,.372-.246V-.78h-.207q-.438,0-.438.324a.3.3,0,0,0,.069.213A.27.27,0,0,0,26.379-.171Zm1.8.18a1.067,1.067,0,0,1-.259.436.784.784,0,0,1-.476.194l-.03-.216a.813.813,0,0,0,.249-.078.429.429,0,0,0,.149-.13.914.914,0,0,0,.1-.215h-.093l-.531-1.581h.294L28.011-.2l.414-1.38h.285Zm1.641-.081a.607.607,0,0,1-.354.108.417.417,0,0,1-.313-.115.46.46,0,0,1-.113-.334v-.954h-.276v-.213h.276v-.357l.276-.033v.39h.375l-.03.213h-.345v.942a.291.291,0,0,0,.043.178.174.174,0,0,0,.146.056.453.453,0,0,0,.21-.063Zm.561-1.509V0h-.276V-1.581Zm-.141-.759a.191.191,0,0,1,.141.054.183.183,0,0,1,.054.135.178.178,0,0,1-.054.134.194.194,0,0,1-.141.053.19.19,0,0,1-.138-.053.178.178,0,0,1-.054-.134.183.183,0,0,1,.054-.135A.187.187,0,0,1,30.243-2.34Zm2.3.723a.4.4,0,0,1,.312.13.509.509,0,0,1,.117.353V0h-.276V-1.1q0-.306-.222-.306a.3.3,0,0,0-.2.067.944.944,0,0,0-.174.212V0h-.276V-1.1q0-.306-.222-.306a.3.3,0,0,0-.2.069.945.945,0,0,0-.171.21V0h-.276V-1.581h.237l.024.231a.53.53,0,0,1,.456-.267.415.415,0,0,1,.25.075.411.411,0,0,1,.148.21.743.743,0,0,1,.206-.212A.474.474,0,0,1,32.541-1.617Zm2.178.78q0,.069-.006.141H33.705a.616.616,0,0,0,.132.384.383.383,0,0,0,.294.123.642.642,0,0,0,.21-.033.847.847,0,0,0,.2-.1l.12.165a.874.874,0,0,1-.552.2A.64.64,0,0,1,33.6-.18a.885.885,0,0,1-.184-.594,1.125,1.125,0,0,1,.079-.437.685.685,0,0,1,.228-.3.578.578,0,0,1,.349-.108.586.586,0,0,1,.483.207A.885.885,0,0,1,34.719-.837Zm-.273-.081a.584.584,0,0,0-.093-.357.328.328,0,0,0-.279-.123q-.339,0-.369.5h.741Zm1.809-1.149V-.249H37.1L37.071,0h-1.1V-2.067Zm2.229,1.7a.248.248,0,0,0,.033.143.2.2,0,0,0,.1.07l-.063.192a.422.422,0,0,1-.2-.069A.316.316,0,0,1,38.244-.2a.53.53,0,0,1-.471.237A.505.505,0,0,1,37.4-.1a.461.461,0,0,1-.135-.345.453.453,0,0,1,.182-.387.849.849,0,0,1,.514-.135h.243V-1.08a.308.308,0,0,0-.081-.24.367.367,0,0,0-.249-.072,1.393,1.393,0,0,0-.426.084l-.069-.2a1.591,1.591,0,0,1,.546-.108.571.571,0,0,1,.417.136.522.522,0,0,1,.138.388Zm-.648.2a.412.412,0,0,0,.372-.246V-.78H38q-.438,0-.438.324a.3.3,0,0,0,.069.213A.27.27,0,0,0,37.836-.171Zm1.938-1.446A.5.5,0,0,1,40.2-1.4a1.013,1.013,0,0,1,.159.608,1.161,1.161,0,0,1-.075.433.649.649,0,0,1-.216.291.543.543,0,0,1-.33.1.523.523,0,0,1-.42-.21L39.294,0h-.243V-2.217l.276-.033v.867A.529.529,0,0,1,39.774-1.617Zm-.1,1.434a.33.33,0,0,0,.286-.148.815.815,0,0,0,.1-.461.854.854,0,0,0-.1-.464A.31.31,0,0,0,39.7-1.4a.447.447,0,0,0-.369.246V-.4a.49.49,0,0,0,.154.156A.36.36,0,0,0,39.675-.183Zm1.587-1.434a.88.88,0,0,1,.291.045.876.876,0,0,1,.246.135l-.117.174a.955.955,0,0,0-.205-.1.637.637,0,0,0-.206-.033.361.361,0,0,0-.213.056.176.176,0,0,0-.078.151.176.176,0,0,0,.074.15.853.853,0,0,0,.265.105.949.949,0,0,1,.395.18.393.393,0,0,1,.131.312.4.4,0,0,1-.182.357.77.77,0,0,1-.442.123.875.875,0,0,1-.6-.207l.147-.168a.716.716,0,0,0,.444.153.422.422,0,0,0,.248-.065.2.2,0,0,0,.091-.176.232.232,0,0,0-.033-.13.268.268,0,0,0-.114-.087,1.564,1.564,0,0,0-.237-.08A.809.809,0,0,1,40.8-.9a.379.379,0,0,1-.112-.282.37.37,0,0,1,.073-.224.477.477,0,0,1,.2-.156A.74.74,0,0,1,41.262-1.617Z" transform="translate(16 294.495)"/>
  </g>
</svg>
